<mxfile>
    <diagram id="C5RBs43oDa-KdzZeNtuy" name="Page-1">
        <mxGraphModel dx="812" dy="1770" grid="1" gridSize="10" guides="1" tooltips="1" connect="1" arrows="1" fold="1" page="1" pageScale="1" pageWidth="827" pageHeight="1169" math="0" shadow="0">
            <root>
                <mxCell id="WIyWlLk6GJQsqaUBKTNV-0"/>
                <mxCell id="WIyWlLk6GJQsqaUBKTNV-1" parent="WIyWlLk6GJQsqaUBKTNV-0"/>
                <mxCell id="9eyyFGWj-U-fY-RkSpsM-0" value="" style="rounded=0;whiteSpace=wrap;html=1;fillColor=#dae8fc;strokeColor=none;" parent="WIyWlLk6GJQsqaUBKTNV-1" vertex="1">
                    <mxGeometry x="29" y="120" width="770" height="490" as="geometry"/>
                </mxCell>
                <mxCell id="9eyyFGWj-U-fY-RkSpsM-2" value="" style="rounded=1;whiteSpace=wrap;html=1;fontColor=#ffffff;strokeColor=none;fillColor=#88CAE2;" parent="WIyWlLk6GJQsqaUBKTNV-1" vertex="1">
                    <mxGeometry x="54" y="130" width="720" height="70" as="geometry"/>
                </mxCell>
                <mxCell id="9eyyFGWj-U-fY-RkSpsM-3" value="" style="rounded=1;whiteSpace=wrap;html=1;fillColor=#88CAE2;strokeColor=none;" parent="WIyWlLk6GJQsqaUBKTNV-1" vertex="1">
                    <mxGeometry x="50" y="210" width="150" height="380" as="geometry"/>
                </mxCell>
                <mxCell id="9eyyFGWj-U-fY-RkSpsM-7" style="rounded=0;orthogonalLoop=1;jettySize=auto;html=1;exitX=0.4;exitY=0.1;exitDx=0;exitDy=0;exitPerimeter=0;entryX=0.147;entryY=1.003;entryDx=0;entryDy=0;entryPerimeter=0;" parent="WIyWlLk6GJQsqaUBKTNV-1" source="9eyyFGWj-U-fY-RkSpsM-5" target="9eyyFGWj-U-fY-RkSpsM-3" edge="1">
                    <mxGeometry relative="1" as="geometry"/>
                </mxCell>
                <mxCell id="9eyyFGWj-U-fY-RkSpsM-5" value="Aside&lt;br&gt;Flex" style="ellipse;shape=cloud;whiteSpace=wrap;html=1;" parent="WIyWlLk6GJQsqaUBKTNV-1" vertex="1">
                    <mxGeometry x="10" y="610" width="120" height="80" as="geometry"/>
                </mxCell>
                <mxCell id="9eyyFGWj-U-fY-RkSpsM-9" style="edgeStyle=none;rounded=0;orthogonalLoop=1;jettySize=auto;html=1;exitX=0.55;exitY=0.95;exitDx=0;exitDy=0;exitPerimeter=0;" parent="WIyWlLk6GJQsqaUBKTNV-1" source="9eyyFGWj-U-fY-RkSpsM-8" target="9eyyFGWj-U-fY-RkSpsM-2" edge="1">
                    <mxGeometry relative="1" as="geometry"/>
                </mxCell>
                <mxCell id="9eyyFGWj-U-fY-RkSpsM-8" value="Header&lt;br&gt;Flex" style="ellipse;shape=cloud;whiteSpace=wrap;html=1;fillColor=none;" parent="WIyWlLk6GJQsqaUBKTNV-1" vertex="1">
                    <mxGeometry x="370" y="-20" width="120" height="80" as="geometry"/>
                </mxCell>
                <mxCell id="9eyyFGWj-U-fY-RkSpsM-11" value="31" style="rounded=1;whiteSpace=wrap;html=1;fontColor=#ffffff;strokeColor=none;fillColor=#88CAE2;verticalAlign=top;" parent="WIyWlLk6GJQsqaUBKTNV-1" vertex="1">
                    <mxGeometry x="210" y="240" width="80" height="80" as="geometry"/>
                </mxCell>
                <mxCell id="9eyyFGWj-U-fY-RkSpsM-12" value="" style="rounded=1;whiteSpace=wrap;html=1;fontColor=#ffffff;strokeColor=none;fillColor=#88CAE2;" parent="WIyWlLk6GJQsqaUBKTNV-1" vertex="1">
                    <mxGeometry x="630" y="240" width="70" height="80" as="geometry"/>
                </mxCell>
                <mxCell id="9eyyFGWj-U-fY-RkSpsM-15" value="1" style="rounded=1;whiteSpace=wrap;html=1;fontColor=#ffffff;strokeColor=none;fillColor=#88CAE2;verticalAlign=top;" parent="WIyWlLk6GJQsqaUBKTNV-1" vertex="1">
                    <mxGeometry x="300" y="240" width="80" height="80" as="geometry"/>
                </mxCell>
                <mxCell id="9eyyFGWj-U-fY-RkSpsM-16" value="" style="rounded=1;whiteSpace=wrap;html=1;fontColor=#ffffff;strokeColor=none;fillColor=#88CAE2;" parent="WIyWlLk6GJQsqaUBKTNV-1" vertex="1">
                    <mxGeometry x="390" y="240" width="70" height="80" as="geometry"/>
                </mxCell>
                <mxCell id="9eyyFGWj-U-fY-RkSpsM-17" value="" style="rounded=1;whiteSpace=wrap;html=1;fontColor=#ffffff;strokeColor=none;fillColor=#88CAE2;" parent="WIyWlLk6GJQsqaUBKTNV-1" vertex="1">
                    <mxGeometry x="470" y="240" width="70" height="80" as="geometry"/>
                </mxCell>
                <mxCell id="9eyyFGWj-U-fY-RkSpsM-18" value="" style="rounded=1;whiteSpace=wrap;html=1;fontColor=#ffffff;strokeColor=none;fillColor=#88CAE2;" parent="WIyWlLk6GJQsqaUBKTNV-1" vertex="1">
                    <mxGeometry x="550" y="240" width="70" height="80" as="geometry"/>
                </mxCell>
                <mxCell id="9eyyFGWj-U-fY-RkSpsM-19" value="" style="rounded=1;whiteSpace=wrap;html=1;fontColor=#ffffff;strokeColor=none;fillColor=#88CAE2;" parent="WIyWlLk6GJQsqaUBKTNV-1" vertex="1">
                    <mxGeometry x="704" y="240" width="70" height="80" as="geometry"/>
                </mxCell>
                <mxCell id="Sfn1u4WLwsIGttq_CAU1-0" value="7" style="rounded=1;whiteSpace=wrap;html=1;fontColor=#ffffff;strokeColor=none;fillColor=#88CAE2;verticalAlign=top;" parent="WIyWlLk6GJQsqaUBKTNV-1" vertex="1">
                    <mxGeometry x="210" y="330" width="80" height="80" as="geometry"/>
                </mxCell>
                <mxCell id="Sfn1u4WLwsIGttq_CAU1-1" value="" style="rounded=1;whiteSpace=wrap;html=1;fontColor=#ffffff;strokeColor=none;fillColor=#88CAE2;" parent="WIyWlLk6GJQsqaUBKTNV-1" vertex="1">
                    <mxGeometry x="630" y="330" width="70" height="80" as="geometry"/>
                </mxCell>
                <mxCell id="Sfn1u4WLwsIGttq_CAU1-2" value="8" style="rounded=1;whiteSpace=wrap;html=1;fontColor=#ffffff;strokeColor=none;fillColor=#88CAE2;verticalAlign=top;" parent="WIyWlLk6GJQsqaUBKTNV-1" vertex="1">
                    <mxGeometry x="300" y="330" width="80" height="80" as="geometry"/>
                </mxCell>
                <mxCell id="Sfn1u4WLwsIGttq_CAU1-3" value="" style="rounded=1;whiteSpace=wrap;html=1;fontColor=#ffffff;strokeColor=none;fillColor=#88CAE2;" parent="WIyWlLk6GJQsqaUBKTNV-1" vertex="1">
                    <mxGeometry x="390" y="330" width="70" height="80" as="geometry"/>
                </mxCell>
                <mxCell id="Sfn1u4WLwsIGttq_CAU1-4" value="" style="rounded=1;whiteSpace=wrap;html=1;fontColor=#ffffff;strokeColor=none;fillColor=#88CAE2;" parent="WIyWlLk6GJQsqaUBKTNV-1" vertex="1">
                    <mxGeometry x="470" y="330" width="70" height="80" as="geometry"/>
                </mxCell>
                <mxCell id="Sfn1u4WLwsIGttq_CAU1-5" value="" style="rounded=1;whiteSpace=wrap;html=1;fontColor=#ffffff;strokeColor=none;fillColor=#88CAE2;" parent="WIyWlLk6GJQsqaUBKTNV-1" vertex="1">
                    <mxGeometry x="550" y="330" width="70" height="80" as="geometry"/>
                </mxCell>
                <mxCell id="Sfn1u4WLwsIGttq_CAU1-6" value="" style="rounded=1;whiteSpace=wrap;html=1;fontColor=#ffffff;strokeColor=none;fillColor=#88CAE2;" parent="WIyWlLk6GJQsqaUBKTNV-1" vertex="1">
                    <mxGeometry x="704" y="330" width="70" height="80" as="geometry"/>
                </mxCell>
                <mxCell id="Sfn1u4WLwsIGttq_CAU1-7" value="" style="rounded=1;whiteSpace=wrap;html=1;fontColor=#ffffff;strokeColor=none;fillColor=#88CAE2;" parent="WIyWlLk6GJQsqaUBKTNV-1" vertex="1">
                    <mxGeometry x="210" y="420" width="80" height="80" as="geometry"/>
                </mxCell>
                <mxCell id="Sfn1u4WLwsIGttq_CAU1-8" value="" style="rounded=1;whiteSpace=wrap;html=1;fontColor=#ffffff;strokeColor=none;fillColor=#88CAE2;" parent="WIyWlLk6GJQsqaUBKTNV-1" vertex="1">
                    <mxGeometry x="630" y="420" width="70" height="80" as="geometry"/>
                </mxCell>
                <mxCell id="Sfn1u4WLwsIGttq_CAU1-9" value="" style="rounded=1;whiteSpace=wrap;html=1;fontColor=#ffffff;strokeColor=none;fillColor=#88CAE2;" parent="WIyWlLk6GJQsqaUBKTNV-1" vertex="1">
                    <mxGeometry x="300" y="420" width="80" height="80" as="geometry"/>
                </mxCell>
                <mxCell id="Sfn1u4WLwsIGttq_CAU1-10" value="" style="rounded=1;whiteSpace=wrap;html=1;fontColor=#ffffff;strokeColor=none;fillColor=#88CAE2;" parent="WIyWlLk6GJQsqaUBKTNV-1" vertex="1">
                    <mxGeometry x="390" y="420" width="70" height="80" as="geometry"/>
                </mxCell>
                <mxCell id="Sfn1u4WLwsIGttq_CAU1-11" value="" style="rounded=1;whiteSpace=wrap;html=1;fontColor=#ffffff;strokeColor=none;fillColor=#88CAE2;" parent="WIyWlLk6GJQsqaUBKTNV-1" vertex="1">
                    <mxGeometry x="470" y="420" width="70" height="80" as="geometry"/>
                </mxCell>
                <mxCell id="Sfn1u4WLwsIGttq_CAU1-12" value="" style="rounded=1;whiteSpace=wrap;html=1;fontColor=#ffffff;strokeColor=none;fillColor=#88CAE2;" parent="WIyWlLk6GJQsqaUBKTNV-1" vertex="1">
                    <mxGeometry x="550" y="420" width="70" height="80" as="geometry"/>
                </mxCell>
                <mxCell id="Sfn1u4WLwsIGttq_CAU1-13" value="" style="rounded=1;whiteSpace=wrap;html=1;fontColor=#ffffff;strokeColor=none;fillColor=#88CAE2;" parent="WIyWlLk6GJQsqaUBKTNV-1" vertex="1">
                    <mxGeometry x="704" y="420" width="70" height="80" as="geometry"/>
                </mxCell>
                <mxCell id="Sfn1u4WLwsIGttq_CAU1-14" value="" style="rounded=1;whiteSpace=wrap;html=1;fontColor=#ffffff;strokeColor=none;fillColor=#88CAE2;" parent="WIyWlLk6GJQsqaUBKTNV-1" vertex="1">
                    <mxGeometry x="210" y="505" width="80" height="80" as="geometry"/>
                </mxCell>
                <mxCell id="Sfn1u4WLwsIGttq_CAU1-15" value="" style="rounded=1;whiteSpace=wrap;html=1;fontColor=#ffffff;strokeColor=none;fillColor=#88CAE2;" parent="WIyWlLk6GJQsqaUBKTNV-1" vertex="1">
                    <mxGeometry x="630" y="505" width="70" height="80" as="geometry"/>
                </mxCell>
                <mxCell id="Sfn1u4WLwsIGttq_CAU1-16" value="" style="rounded=1;whiteSpace=wrap;html=1;fontColor=#ffffff;strokeColor=none;fillColor=#88CAE2;" parent="WIyWlLk6GJQsqaUBKTNV-1" vertex="1">
                    <mxGeometry x="300" y="505" width="80" height="80" as="geometry"/>
                </mxCell>
                <mxCell id="Sfn1u4WLwsIGttq_CAU1-17" value="" style="rounded=1;whiteSpace=wrap;html=1;fontColor=#ffffff;strokeColor=none;fillColor=#88CAE2;" parent="WIyWlLk6GJQsqaUBKTNV-1" vertex="1">
                    <mxGeometry x="390" y="505" width="70" height="80" as="geometry"/>
                </mxCell>
                <mxCell id="Sfn1u4WLwsIGttq_CAU1-18" value="" style="rounded=1;whiteSpace=wrap;html=1;fontColor=#ffffff;strokeColor=none;fillColor=#88CAE2;" parent="WIyWlLk6GJQsqaUBKTNV-1" vertex="1">
                    <mxGeometry x="470" y="505" width="70" height="80" as="geometry"/>
                </mxCell>
                <mxCell id="Sfn1u4WLwsIGttq_CAU1-19" value="" style="rounded=1;whiteSpace=wrap;html=1;fontColor=#ffffff;strokeColor=none;fillColor=#88CAE2;" parent="WIyWlLk6GJQsqaUBKTNV-1" vertex="1">
                    <mxGeometry x="550" y="505" width="70" height="80" as="geometry"/>
                </mxCell>
                <mxCell id="Sfn1u4WLwsIGttq_CAU1-20" value="" style="rounded=1;whiteSpace=wrap;html=1;fontColor=#ffffff;strokeColor=none;fillColor=#88CAE2;" parent="WIyWlLk6GJQsqaUBKTNV-1" vertex="1">
                    <mxGeometry x="704" y="505" width="70" height="80" as="geometry"/>
                </mxCell>
                <mxCell id="9eyyFGWj-U-fY-RkSpsM-23" style="edgeStyle=none;rounded=0;orthogonalLoop=1;jettySize=auto;html=1;exitX=0.4;exitY=0.1;exitDx=0;exitDy=0;exitPerimeter=0;entryX=0.5;entryY=1;entryDx=0;entryDy=0;" parent="WIyWlLk6GJQsqaUBKTNV-1" source="9eyyFGWj-U-fY-RkSpsM-22" target="Sfn1u4WLwsIGttq_CAU1-19" edge="1">
                    <mxGeometry relative="1" as="geometry"/>
                </mxCell>
                <mxCell id="9eyyFGWj-U-fY-RkSpsM-22" value="main { &lt;br&gt;grid }" style="ellipse;shape=cloud;whiteSpace=wrap;html=1;fillColor=none;" parent="WIyWlLk6GJQsqaUBKTNV-1" vertex="1">
                    <mxGeometry x="550" y="630" width="120" height="80" as="geometry"/>
                </mxCell>
                <mxCell id="9eyyFGWj-U-fY-RkSpsM-25" value="Tisdag" style="rounded=1;whiteSpace=wrap;html=1;fontColor=#ffffff;strokeColor=none;fillColor=#88CAE2;" parent="WIyWlLk6GJQsqaUBKTNV-1" vertex="1">
                    <mxGeometry x="300" y="210" width="80" height="20" as="geometry"/>
                </mxCell>
                <mxCell id="9eyyFGWj-U-fY-RkSpsM-29" value="Måndag" style="rounded=1;whiteSpace=wrap;html=1;fontColor=#ffffff;strokeColor=none;fillColor=#88CAE2;" parent="WIyWlLk6GJQsqaUBKTNV-1" vertex="1">
                    <mxGeometry x="210" y="210" width="80" height="20" as="geometry"/>
                </mxCell>
                <mxCell id="9eyyFGWj-U-fY-RkSpsM-30" value="Fredag" style="rounded=1;whiteSpace=wrap;html=1;fontColor=#ffffff;strokeColor=none;fillColor=#88CAE2;" parent="WIyWlLk6GJQsqaUBKTNV-1" vertex="1">
                    <mxGeometry x="550" y="210" width="70" height="20" as="geometry"/>
                </mxCell>
                <mxCell id="9eyyFGWj-U-fY-RkSpsM-31" value="Torsdag" style="rounded=1;whiteSpace=wrap;html=1;fontColor=#ffffff;strokeColor=none;fillColor=#88CAE2;" parent="WIyWlLk6GJQsqaUBKTNV-1" vertex="1">
                    <mxGeometry x="465" y="210" width="80" height="20" as="geometry"/>
                </mxCell>
                <mxCell id="9eyyFGWj-U-fY-RkSpsM-32" value="Onsdag" style="rounded=1;whiteSpace=wrap;html=1;fontColor=#ffffff;strokeColor=none;fillColor=#88CAE2;" parent="WIyWlLk6GJQsqaUBKTNV-1" vertex="1">
                    <mxGeometry x="385" y="210" width="75" height="20" as="geometry"/>
                </mxCell>
                <mxCell id="9eyyFGWj-U-fY-RkSpsM-33" value="Söndag" style="rounded=1;whiteSpace=wrap;html=1;fontColor=#ffffff;strokeColor=none;fillColor=#88CAE2;" parent="WIyWlLk6GJQsqaUBKTNV-1" vertex="1">
                    <mxGeometry x="704" y="210" width="66" height="20" as="geometry"/>
                </mxCell>
                <mxCell id="9eyyFGWj-U-fY-RkSpsM-34" value="Lördag" style="rounded=1;whiteSpace=wrap;html=1;fontColor=#ffffff;strokeColor=none;fillColor=#88CAE2;" parent="WIyWlLk6GJQsqaUBKTNV-1" vertex="1">
                    <mxGeometry x="630" y="210" width="70" height="20" as="geometry"/>
                </mxCell>
                <mxCell id="9eyyFGWj-U-fY-RkSpsM-35" value="&lt;font color=&quot;#ffffff&quot;&gt;&lt;b&gt;Fredag 11:06&lt;br&gt;2021-06-18&lt;br&gt;&lt;/b&gt;&lt;/font&gt;" style="text;html=1;align=center;verticalAlign=middle;whiteSpace=wrap;rounded=0;" parent="WIyWlLk6GJQsqaUBKTNV-1" vertex="1">
                    <mxGeometry x="77.5" y="260" width="97.5" height="60" as="geometry"/>
                </mxCell>
                <mxCell id="9eyyFGWj-U-fY-RkSpsM-36" value="Plugga" style="rounded=1;whiteSpace=wrap;html=1;strokeColor=none;" parent="WIyWlLk6GJQsqaUBKTNV-1" vertex="1">
                    <mxGeometry x="67.5" y="350" width="115" height="30" as="geometry"/>
                </mxCell>
                <mxCell id="9eyyFGWj-U-fY-RkSpsM-37" value="Handla" style="rounded=1;whiteSpace=wrap;html=1;strokeColor=none;" parent="WIyWlLk6GJQsqaUBKTNV-1" vertex="1">
                    <mxGeometry x="67.5" y="400" width="115" height="30" as="geometry"/>
                </mxCell>
                <mxCell id="9eyyFGWj-U-fY-RkSpsM-38" value="Plugga" style="rounded=1;whiteSpace=wrap;html=1;strokeColor=none;" parent="WIyWlLk6GJQsqaUBKTNV-1" vertex="1">
                    <mxGeometry x="67.5" y="440" width="115" height="30" as="geometry"/>
                </mxCell>
                <mxCell id="9eyyFGWj-U-fY-RkSpsM-40" value="Lägg till Todo" style="rounded=1;whiteSpace=wrap;html=1;strokeColor=none;" parent="WIyWlLk6GJQsqaUBKTNV-1" vertex="1">
                    <mxGeometry x="67.5" y="540" width="115" height="30" as="geometry"/>
                </mxCell>
                <mxCell id="9eyyFGWj-U-fY-RkSpsM-42" value="&lt;font color=&quot;#ffffff&quot;&gt;&lt;b&gt;15/6&lt;/b&gt;&lt;/font&gt;" style="text;html=1;align=center;verticalAlign=middle;whiteSpace=wrap;rounded=0;" parent="WIyWlLk6GJQsqaUBKTNV-1" vertex="1">
                    <mxGeometry x="92.5" y="380" width="65" height="20" as="geometry"/>
                </mxCell>
                <mxCell id="9eyyFGWj-U-fY-RkSpsM-45" value="" style="verticalLabelPosition=bottom;verticalAlign=top;html=1;shape=mxgraph.basic.star;fillColor=none;" parent="WIyWlLk6GJQsqaUBKTNV-1" vertex="1">
                    <mxGeometry x="155" y="447.5" width="20" height="15" as="geometry"/>
                </mxCell>
                <mxCell id="9eyyFGWj-U-fY-RkSpsM-46" value="" style="verticalLabelPosition=bottom;verticalAlign=top;html=1;shape=mxgraph.basic.star;fillColor=none;" parent="WIyWlLk6GJQsqaUBKTNV-1" vertex="1">
                    <mxGeometry x="155" y="407.5" width="20" height="15" as="geometry"/>
                </mxCell>
                <mxCell id="9eyyFGWj-U-fY-RkSpsM-47" value="" style="verticalLabelPosition=bottom;verticalAlign=top;html=1;shape=mxgraph.basic.star;fillColor=none;" parent="WIyWlLk6GJQsqaUBKTNV-1" vertex="1">
                    <mxGeometry x="157.5" y="357.5" width="20" height="15" as="geometry"/>
                </mxCell>
                <mxCell id="9eyyFGWj-U-fY-RkSpsM-49" style="edgeStyle=none;rounded=0;orthogonalLoop=1;jettySize=auto;html=1;exitX=0.55;exitY=0.95;exitDx=0;exitDy=0;exitPerimeter=0;entryX=0.5;entryY=0;entryDx=0;entryDy=0;entryPerimeter=0;" parent="WIyWlLk6GJQsqaUBKTNV-1" source="9eyyFGWj-U-fY-RkSpsM-48" target="9eyyFGWj-U-fY-RkSpsM-47" edge="1">
                    <mxGeometry relative="1" as="geometry"/>
                </mxCell>
                <mxCell id="9eyyFGWj-U-fY-RkSpsM-48" value="Redigera knapp" style="ellipse;shape=cloud;whiteSpace=wrap;html=1;fillColor=none;" parent="WIyWlLk6GJQsqaUBKTNV-1" vertex="1">
                    <mxGeometry x="172.5" width="120" height="80" as="geometry"/>
                </mxCell>
                <mxCell id="Sfn1u4WLwsIGttq_CAU1-23" value="&lt;font color=&quot;#ffffff&quot;&gt;Aktiviteter(3)&lt;/font&gt;" style="text;html=1;align=center;verticalAlign=middle;whiteSpace=wrap;rounded=0;" parent="WIyWlLk6GJQsqaUBKTNV-1" vertex="1">
                    <mxGeometry x="230" y="300" width="40" height="20" as="geometry"/>
                </mxCell>
                <mxCell id="9eyyFGWj-U-fY-RkSpsM-50" value="&lt;font color=&quot;#ffffff&quot;&gt;Aktiviteter (2)&lt;/font&gt;" style="text;html=1;strokeColor=none;fillColor=none;align=center;verticalAlign=middle;whiteSpace=wrap;rounded=0;" parent="WIyWlLk6GJQsqaUBKTNV-1" vertex="1">
                    <mxGeometry x="295" y="300" width="90" height="20" as="geometry"/>
                </mxCell>
                <mxCell id="Sfn1u4WLwsIGttq_CAU1-24" value="&lt;font style=&quot;font-size: 9px&quot;&gt;2021&lt;/font&gt;&lt;br&gt;&amp;lt; JUNI &amp;gt;" style="text;html=1;strokeColor=none;fillColor=none;align=center;verticalAlign=middle;whiteSpace=wrap;rounded=0;fontSize=24;" parent="WIyWlLk6GJQsqaUBKTNV-1" vertex="1">
                    <mxGeometry x="75" y="200" width="100" height="60" as="geometry"/>
                </mxCell>
                <mxCell id="Sfn1u4WLwsIGttq_CAU1-25" value="" style="rounded=0;whiteSpace=wrap;html=1;fillColor=#dae8fc;strokeColor=none;" parent="WIyWlLk6GJQsqaUBKTNV-1" vertex="1">
                    <mxGeometry x="54" y="780" width="295" height="490" as="geometry"/>
                </mxCell>
                <mxCell id="9eyyFGWj-U-fY-RkSpsM-60" value="TITEL" style="text;html=1;strokeColor=none;fillColor=none;align=center;verticalAlign=middle;whiteSpace=wrap;rounded=0;fontSize=24;" parent="WIyWlLk6GJQsqaUBKTNV-1" vertex="1">
                    <mxGeometry x="360" y="135" width="100" height="60" as="geometry"/>
                </mxCell>
                <mxCell id="Sfn1u4WLwsIGttq_CAU1-28" value="TITEL" style="rounded=1;whiteSpace=wrap;html=1;fontColor=#ffffff;strokeColor=none;fillColor=#88CAE2;" parent="WIyWlLk6GJQsqaUBKTNV-1" vertex="1">
                    <mxGeometry x="62.5" y="790" width="277.5" height="50" as="geometry"/>
                </mxCell>
                <mxCell id="Sfn1u4WLwsIGttq_CAU1-30" value="|||" style="text;html=1;strokeColor=none;fillColor=none;align=center;verticalAlign=middle;whiteSpace=wrap;rounded=0;fontSize=24;rotation=90;" parent="WIyWlLk6GJQsqaUBKTNV-1" vertex="1">
                    <mxGeometry x="67.5" y="805" width="40" height="20" as="geometry"/>
                </mxCell>
                <mxCell id="9eyyFGWj-U-fY-RkSpsM-61" value="&lt;font color=&quot;#ffffff&quot;&gt;&lt;b&gt;12/6&lt;/b&gt;&lt;/font&gt;" style="text;html=1;align=center;verticalAlign=middle;whiteSpace=wrap;rounded=0;" parent="WIyWlLk6GJQsqaUBKTNV-1" vertex="1">
                    <mxGeometry x="92.5" y="330" width="65" height="20" as="geometry"/>
                </mxCell>
                <mxCell id="9eyyFGWj-U-fY-RkSpsM-62" value="&lt;font color=&quot;#ff3333&quot; style=&quot;font-size: 9px&quot;&gt;Midsommarafton&lt;/font&gt;" style="text;html=1;strokeColor=none;fillColor=none;align=center;verticalAlign=middle;whiteSpace=wrap;rounded=0;" parent="WIyWlLk6GJQsqaUBKTNV-1" vertex="1">
                    <mxGeometry x="567.5" y="470" width="35" height="20" as="geometry"/>
                </mxCell>
                <mxCell id="9eyyFGWj-U-fY-RkSpsM-70" value="" style="rounded=1;whiteSpace=wrap;html=1;fillColor=#88CAE2;strokeColor=none;" parent="WIyWlLk6GJQsqaUBKTNV-1" vertex="1">
                    <mxGeometry x="70" y="850" width="270" height="405" as="geometry"/>
                </mxCell>
                <mxCell id="9eyyFGWj-U-fY-RkSpsM-66" value="Plugga" style="rounded=1;whiteSpace=wrap;html=1;strokeColor=none;" parent="WIyWlLk6GJQsqaUBKTNV-1" vertex="1">
                    <mxGeometry x="80" y="960" width="250" height="30" as="geometry"/>
                </mxCell>
                <mxCell id="9eyyFGWj-U-fY-RkSpsM-68" value="&lt;font color=&quot;#ffffff&quot;&gt;&lt;b&gt;12/6&lt;/b&gt;&lt;/font&gt;" style="text;html=1;align=center;verticalAlign=middle;whiteSpace=wrap;rounded=0;" parent="WIyWlLk6GJQsqaUBKTNV-1" vertex="1">
                    <mxGeometry x="172.5" y="940" width="65" height="20" as="geometry"/>
                </mxCell>
                <mxCell id="9eyyFGWj-U-fY-RkSpsM-69" value="&lt;font color=&quot;#ffffff&quot;&gt;&lt;b&gt;15/6&lt;/b&gt;&lt;/font&gt;" style="text;html=1;align=center;verticalAlign=middle;whiteSpace=wrap;rounded=0;" parent="WIyWlLk6GJQsqaUBKTNV-1" vertex="1">
                    <mxGeometry x="175" y="1020" width="65" height="20" as="geometry"/>
                </mxCell>
                <mxCell id="9eyyFGWj-U-fY-RkSpsM-65" value="Handla" style="rounded=1;whiteSpace=wrap;html=1;strokeColor=none;" parent="WIyWlLk6GJQsqaUBKTNV-1" vertex="1">
                    <mxGeometry x="80" y="1050" width="250" height="30" as="geometry"/>
                </mxCell>
                <mxCell id="9eyyFGWj-U-fY-RkSpsM-64" value="Plugga" style="rounded=1;whiteSpace=wrap;html=1;strokeColor=none;" parent="WIyWlLk6GJQsqaUBKTNV-1" vertex="1">
                    <mxGeometry x="80" y="1090" width="250" height="30" as="geometry"/>
                </mxCell>
                <mxCell id="9eyyFGWj-U-fY-RkSpsM-63" value="Lägg till Todo" style="rounded=1;whiteSpace=wrap;html=1;strokeColor=none;" parent="WIyWlLk6GJQsqaUBKTNV-1" vertex="1">
                    <mxGeometry x="85" y="1190" width="245" height="30" as="geometry"/>
                </mxCell>
                <mxCell id="Sfn1u4WLwsIGttq_CAU1-27" value="&amp;lt; JUNI &amp;gt;" style="text;html=1;strokeColor=none;fillColor=none;align=center;verticalAlign=middle;whiteSpace=wrap;rounded=0;fontSize=24;" parent="WIyWlLk6GJQsqaUBKTNV-1" vertex="1">
                    <mxGeometry x="100" y="850" width="100" height="60" as="geometry"/>
                </mxCell>
                <mxCell id="9eyyFGWj-U-fY-RkSpsM-71" value="" style="edgeStyle=none;rounded=0;orthogonalLoop=1;jettySize=auto;html=1;" parent="WIyWlLk6GJQsqaUBKTNV-1" source="Sfn1u4WLwsIGttq_CAU1-29" target="9eyyFGWj-U-fY-RkSpsM-68" edge="1">
                    <mxGeometry relative="1" as="geometry"/>
                </mxCell>
                <mxCell id="9eyyFGWj-U-fY-RkSpsM-72" value="" style="edgeStyle=none;rounded=0;orthogonalLoop=1;jettySize=auto;html=1;" parent="WIyWlLk6GJQsqaUBKTNV-1" source="Sfn1u4WLwsIGttq_CAU1-29" target="9eyyFGWj-U-fY-RkSpsM-68" edge="1">
                    <mxGeometry relative="1" as="geometry"/>
                </mxCell>
                <mxCell id="Sfn1u4WLwsIGttq_CAU1-29" value="&lt;font color=&quot;#ffffff&quot;&gt;&lt;b&gt;(Dagens datum)&lt;br&gt;Veckodag&lt;br&gt;&lt;/b&gt;&lt;/font&gt;" style="text;html=1;align=center;verticalAlign=middle;whiteSpace=wrap;rounded=0;" parent="WIyWlLk6GJQsqaUBKTNV-1" vertex="1">
                    <mxGeometry x="240" y="880" width="65" height="20" as="geometry"/>
                </mxCell>
                <mxCell id="1" value="" style="endArrow=none;html=1;exitX=0;exitY=0;exitDx=0;exitDy=0;" edge="1" parent="WIyWlLk6GJQsqaUBKTNV-1" source="9eyyFGWj-U-fY-RkSpsM-35">
                    <mxGeometry width="50" height="50" relative="1" as="geometry">
                        <mxPoint x="130" y="310" as="sourcePoint"/>
                        <mxPoint x="180" y="260" as="targetPoint"/>
                    </mxGeometry>
                </mxCell>
            </root>
        </mxGraphModel>
    </diagram>
</mxfile>